<svg id="Layer_1" xmlns="http://www.w3.org/2000/svg" viewBox="0 0 281.5 281.5"><style>.st0{fill:url(#SVGID_1_)}.st1{fill:#fff}</style><linearGradient id="SVGID_1_" gradientUnits="userSpaceOnUse" x1="198.748" y1="36.451" x2="79.055" y2="251.595"><stop offset="0" stop-color="#4845a2"/><stop offset=".189" stop-color="#8744a1"/><stop offset=".3" stop-color="#a844a1"/><stop offset=".351" stop-color="#ab429a"/><stop offset=".423" stop-color="#b43c88"/><stop offset=".508" stop-color="#c33269"/><stop offset=".602" stop-color="#d7243f"/><stop offset=".604" stop-color="#d7243e"/><stop offset=".877" stop-color="#f9a326"/><stop offset="1" stop-color="#f9dd26"/></linearGradient><circle class="st0" cx="140.7" cy="140.7" r="140.7"/><path class="st1" d="M176.1 57.1h-70.7c-26.7 0-48.3 21.6-48.3 48.3v70.7c0 26.7 21.6 48.3 48.3 48.3h70.7c26.6 0 48.3-21.6 48.3-48.3v-70.7c-.1-26.7-21.7-48.3-48.3-48.3m32.8 120.2c0 17.7-14.3 32-32 32h-72.3c-17.7 0-32-14.3-32-32V105c0-17.7 14.3-32 32-32h72.3c17.7 0 32 14.3 32 32v72.3z"/><path class="st1" d="M140.7 97.8c-24 0-43.4 19.4-43.4 43.4s19.4 43.4 43.4 43.4 43.4-19.4 43.4-43.4-19.4-43.4-43.4-43.4m0 71.5c-15.5 0-28.1-12.6-28.1-28.1 0-15.5 12.6-28.1 28.1-28.1 15.5 0 28.1 12.6 28.1 28.1.1 15.5-12.5 28.1-28.1 28.1M185.6 86c-5.6 0-10.1 4.5-10.1 10.1s4.5 10.1 10.1 10.1 10.1-4.5 10.1-10.1S191.1 86 185.6 86"/></svg>